<svg width="453" height="159" viewBox="0 0 453 159" fill="none" xmlns="http://www.w3.org/2000/svg">
<path d="M169.467 127.834H162.129V111.746C162.129 109.443 161.73 107.785 160.932 106.711C160.134 105.667 159.028 105.114 157.585 105.114C156.848 105.114 156.112 105.268 155.344 105.544C154.576 105.851 153.87 106.25 153.195 106.772C152.519 107.294 151.905 107.939 151.353 108.645C150.8 109.382 150.401 110.18 150.155 111.04V127.772H142.818V99.1271H149.419V104.439C150.462 102.627 151.998 101.184 154.024 100.171C156.019 99.1578 158.291 98.6359 160.809 98.6359C162.59 98.6359 164.063 98.9736 165.169 99.6184C166.305 100.263 167.164 101.123 167.778 102.197C168.392 103.241 168.822 104.469 169.068 105.82C169.313 107.171 169.436 108.522 169.436 109.934V127.834H169.467Z" fill="#FDB515"/>
<path d="M189.147 128.386C186.844 128.386 184.787 127.987 182.914 127.219C181.042 126.421 179.476 125.377 178.156 124.026C176.835 122.676 175.822 121.11 175.116 119.329C174.41 117.548 174.042 115.676 174.042 113.711C174.042 111.684 174.379 109.75 175.085 107.939C175.792 106.127 176.774 104.561 178.094 103.18C179.414 101.798 181.011 100.724 182.884 99.9254C184.757 99.1271 186.875 98.728 189.208 98.728C191.542 98.728 193.629 99.1271 195.472 99.9254C197.314 100.724 198.879 101.798 200.169 103.149C201.458 104.5 202.441 106.066 203.116 107.846C203.792 109.627 204.13 111.5 204.13 113.434C204.13 113.895 204.13 114.355 204.099 114.816C204.068 115.246 204.037 115.614 203.976 115.921H181.84C181.963 117.057 182.208 118.04 182.669 118.93C183.099 119.79 183.682 120.557 184.357 121.171C185.064 121.785 185.831 122.276 186.722 122.583C187.612 122.921 188.502 123.075 189.454 123.075C190.897 123.075 192.279 122.706 193.568 122C194.858 121.294 195.748 120.342 196.208 119.176L202.502 120.926C201.458 123.105 199.77 124.917 197.437 126.298C195.103 127.68 192.371 128.386 189.147 128.386ZM196.577 111.101C196.393 108.952 195.594 107.232 194.213 105.943C192.801 104.653 191.112 104.009 189.116 104.009C188.134 104.009 187.213 104.193 186.353 104.531C185.493 104.868 184.726 105.36 184.081 105.974C183.436 106.588 182.884 107.355 182.454 108.215C182.024 109.075 181.778 110.057 181.717 111.101H196.577V111.101Z" fill="#FDB515"/>
<path d="M225.56 126.36C224.577 126.79 223.38 127.25 221.937 127.68C220.524 128.11 219.02 128.325 217.454 128.325C216.441 128.325 215.489 128.202 214.599 127.956C213.709 127.711 212.91 127.281 212.235 126.728C211.559 126.176 211.037 125.439 210.608 124.548C210.209 123.658 209.994 122.583 209.994 121.294V104.838H206.217V99.2192H209.994V89.9165H217.331V99.2192H223.349V104.838H217.331V118.838C217.331 119.851 217.608 120.588 218.13 120.987C218.652 121.417 219.296 121.601 220.064 121.601C220.831 121.601 221.568 121.478 222.305 121.233C223.042 120.987 223.625 120.772 224.055 120.588L225.56 126.36Z" fill="#FDB515"/>
<path d="M264.92 99.1885H271.858L259.884 127.834H253.867L248.954 115.246L244.104 127.834H238.086L226.174 99.1885H233.051L241.586 120.956L245.086 111.654L240.051 99.2499H245.946L248.954 108.061L252.025 99.2499H257.919L252.946 111.654L256.384 120.956L264.92 99.1885Z" fill="#FDB515"/>
<path d="M287.455 128.386C285.121 128.386 283.034 127.987 281.161 127.189C279.288 126.391 277.722 125.316 276.433 123.934C275.143 122.553 274.13 120.987 273.455 119.206C272.749 117.426 272.411 115.553 272.411 113.588C272.411 111.592 272.749 109.689 273.455 107.908C274.161 106.127 275.143 104.531 276.433 103.18C277.722 101.798 279.288 100.724 281.161 99.9254C283.034 99.1271 285.121 98.728 287.455 98.728C289.788 98.728 291.876 99.1271 293.718 99.9254C295.56 100.724 297.126 101.798 298.415 103.18C299.705 104.561 300.687 106.127 301.394 107.908C302.1 109.689 302.437 111.592 302.437 113.588C302.437 115.553 302.1 117.426 301.394 119.206C300.687 120.987 299.705 122.583 298.446 123.934C297.157 125.316 295.591 126.391 293.749 127.189C291.876 127.956 289.788 128.386 287.455 128.386ZM279.964 113.557C279.964 114.847 280.148 115.983 280.547 117.026C280.915 118.07 281.468 118.961 282.143 119.728C282.819 120.496 283.617 121.079 284.507 121.509C285.428 121.939 286.411 122.123 287.455 122.123C288.499 122.123 289.481 121.908 290.402 121.509C291.323 121.079 292.091 120.496 292.766 119.728C293.442 118.961 293.964 118.04 294.363 116.996C294.731 115.952 294.946 114.785 294.946 113.496C294.946 112.268 294.762 111.101 294.363 110.057C293.994 109.013 293.442 108.092 292.766 107.325C292.091 106.557 291.293 105.974 290.402 105.544C289.481 105.114 288.499 104.93 287.455 104.93C286.411 104.93 285.428 105.145 284.507 105.575C283.586 106.004 282.788 106.618 282.143 107.386C281.468 108.154 280.946 109.075 280.547 110.118C280.148 111.162 279.964 112.329 279.964 113.557Z" fill="#FDB515"/>
<path d="M324.42 105.513C322.21 105.544 320.214 105.974 318.464 106.803C316.714 107.632 315.455 108.86 314.687 110.487V127.803H307.35V99.1578H314.073V105.268C314.595 104.285 315.179 103.395 315.885 102.627C316.591 101.829 317.328 101.153 318.126 100.57C318.924 99.9868 319.753 99.5263 320.552 99.2192C321.381 98.9122 322.148 98.7587 322.916 98.7587C323.315 98.7587 323.622 98.7587 323.806 98.7587C324.021 98.7587 324.205 98.7894 324.389 98.8201V105.513H324.42Z" fill="#FDB515"/>
<path d="M348.091 127.834L339.771 115.43L335.841 119.298V127.834H328.503V87.9209H335.841V112.145L347.324 99.2499H355.153L344.499 111.377L355.92 127.834H348.091Z" fill="#FDB515"/>
<path d="M369.828 128.386C367.434 128.386 365.069 128.018 362.767 127.25C360.464 126.483 358.499 125.377 356.872 123.965L359.605 119.36C361.355 120.588 363.043 121.54 364.701 122.184C366.359 122.829 368.017 123.136 369.644 123.136C371.087 123.136 372.254 122.86 373.083 122.307C373.912 121.755 374.342 120.987 374.342 119.943C374.342 118.93 373.85 118.162 372.868 117.702C371.885 117.241 370.289 116.689 368.048 116.075C366.175 115.553 364.609 115.061 363.289 114.601C361.969 114.14 360.925 113.588 360.126 112.974C359.328 112.36 358.745 111.684 358.376 110.886C358.008 110.088 357.824 109.167 357.824 108.061C357.824 106.618 358.1 105.298 358.683 104.132C359.236 102.965 360.034 101.982 361.048 101.153C362.061 100.325 363.258 99.7105 364.64 99.2806C366.021 98.8508 367.495 98.6359 369.091 98.6359C371.241 98.6359 373.267 98.9429 375.14 99.557C377.013 100.171 378.732 101.184 380.298 102.566L377.35 106.987C375.907 105.882 374.495 105.083 373.113 104.592C371.732 104.07 370.381 103.825 369.03 103.825C367.802 103.825 366.758 104.07 365.898 104.592C365.069 105.114 364.64 105.912 364.64 107.048C364.64 107.57 364.732 107.969 364.947 108.307C365.162 108.645 365.469 108.921 365.898 109.167C366.328 109.412 366.912 109.658 367.618 109.904C368.324 110.149 369.214 110.395 370.258 110.64C372.223 111.162 373.912 111.654 375.324 112.175C376.736 112.697 377.872 113.281 378.763 113.925C379.653 114.57 380.298 115.338 380.728 116.197C381.157 117.057 381.342 118.07 381.342 119.298C381.342 122.092 380.298 124.333 378.21 125.93C376.245 127.557 373.42 128.386 369.828 128.386Z" fill="#FDB515"/>
<path d="M141.651 144.566H143.554L143.125 146.562C143.616 145.886 144.261 145.364 145.028 144.965C145.796 144.566 146.594 144.382 147.423 144.382C147.853 144.382 148.19 144.443 148.467 144.566C148.743 144.689 148.958 144.842 149.142 145.057C149.326 145.272 149.449 145.518 149.511 145.794C149.603 146.07 149.633 146.378 149.633 146.715C149.633 146.992 149.603 147.268 149.572 147.544C149.541 147.851 149.48 148.128 149.418 148.435L148.129 154.514H146.041L147.239 148.926C147.3 148.68 147.331 148.465 147.361 148.281C147.392 148.097 147.392 147.882 147.392 147.728C147.392 146.746 146.993 146.255 146.164 146.255C145.888 146.255 145.581 146.316 145.274 146.439C144.967 146.562 144.66 146.715 144.383 146.93C144.076 147.145 143.8 147.391 143.554 147.667C143.309 147.943 143.094 148.281 142.91 148.619L141.62 154.544H139.502L141.651 144.566Z" fill="#193561"/>
<path d="M154.822 154.728C154.177 154.728 153.625 154.606 153.133 154.391C152.642 154.176 152.243 153.869 151.875 153.5C151.537 153.132 151.261 152.671 151.107 152.149C150.923 151.628 150.831 151.075 150.831 150.492C150.831 149.663 150.984 148.895 151.291 148.158C151.598 147.421 152.028 146.777 152.581 146.224C153.133 145.671 153.778 145.211 154.546 144.873C155.313 144.535 156.111 144.382 157.002 144.382C158.046 144.382 158.844 144.627 159.458 145.088C160.072 145.549 160.379 146.224 160.379 147.145C160.379 149.233 158.506 150.277 154.791 150.277C154.239 150.277 153.625 150.246 152.949 150.215V150.553C152.949 150.921 152.98 151.259 153.072 151.597C153.164 151.904 153.287 152.18 153.471 152.426C153.655 152.671 153.87 152.856 154.147 152.978C154.423 153.101 154.761 153.193 155.129 153.193C155.682 153.193 156.204 153.071 156.726 152.794C157.247 152.518 157.647 152.149 157.923 151.689L159.581 152.211C159.335 152.579 159.028 152.948 158.69 153.255C158.353 153.562 157.954 153.838 157.524 154.053C157.094 154.268 156.664 154.452 156.204 154.575C155.774 154.667 155.313 154.728 154.822 154.728ZM156.756 145.948C156.296 145.948 155.866 146.04 155.497 146.193C155.129 146.347 154.791 146.562 154.484 146.838C154.177 147.114 153.932 147.421 153.747 147.759C153.563 148.097 153.379 148.465 153.256 148.864C153.84 148.895 154.392 148.926 154.883 148.926C155.559 148.926 156.111 148.895 156.572 148.803C157.033 148.711 157.401 148.619 157.677 148.465C157.954 148.312 158.169 148.128 158.291 147.943C158.414 147.728 158.476 147.513 158.476 147.237C158.476 146.807 158.322 146.5 158.015 146.285C157.708 146.04 157.278 145.948 156.756 145.948Z" fill="#193561"/>
<path d="M164.248 149.571L161.853 144.566H164.033L165.568 147.974L165.66 148.312L165.875 147.974L168.853 144.566H171.033L166.519 149.571L168.945 154.544H166.765L165.23 151.136L165.107 150.829L164.892 151.136L161.883 154.544H159.704L164.248 149.571Z" fill="#193561"/>
<path d="M173.151 154.698C172.598 154.698 172.138 154.575 171.77 154.299C171.401 154.053 171.217 153.623 171.217 153.04C171.217 152.825 171.248 152.61 171.278 152.426L172.598 146.193H171.309L171.677 144.566H172.905L173.612 141.281H175.699L174.993 144.566H177.05L176.713 146.193H174.686L173.489 151.75C173.458 151.873 173.458 151.965 173.458 152.027C173.458 152.272 173.52 152.457 173.673 152.579C173.827 152.702 174.011 152.764 174.226 152.764C174.533 152.764 174.809 152.702 175.055 152.61C175.331 152.518 175.515 152.426 175.669 152.364L175.73 154.022C175.423 154.207 175.055 154.36 174.563 154.483C174.195 154.636 173.673 154.698 173.151 154.698Z" fill="#193561"/>
<path d="M184.818 158.812C183.774 158.812 182.914 158.628 182.3 158.259C181.686 157.891 181.195 157.369 180.857 156.693L182.27 155.588C182.515 156.11 182.914 156.54 183.406 156.816C183.897 157.092 184.48 157.246 185.125 157.246C185.524 157.246 185.923 157.185 186.322 157.062C186.721 156.939 187.059 156.755 187.397 156.54C187.735 156.294 188.011 155.987 188.256 155.619C188.502 155.25 188.656 154.821 188.748 154.299L189.055 152.764C188.594 153.378 188.042 153.838 187.397 154.176C186.721 154.514 186.077 154.667 185.432 154.667C184.91 154.667 184.419 154.544 183.989 154.329C183.559 154.114 183.221 153.807 182.945 153.439C182.669 153.071 182.454 152.641 182.3 152.149C182.147 151.658 182.085 151.136 182.085 150.614C182.085 149.785 182.239 149.018 182.546 148.281C182.853 147.544 183.252 146.869 183.774 146.285C184.296 145.702 184.879 145.242 185.555 144.904C186.23 144.566 186.967 144.382 187.735 144.382C188.502 144.382 189.116 144.566 189.607 144.965C190.099 145.364 190.436 145.856 190.713 146.439L191.112 144.535H192.954L190.897 154.237C190.743 154.974 190.467 155.619 190.099 156.171C189.73 156.724 189.27 157.215 188.717 157.584C188.195 157.983 187.581 158.259 186.936 158.474C186.292 158.689 185.555 158.812 184.818 158.812ZM186.506 152.948C186.813 152.948 187.09 152.886 187.397 152.794C187.704 152.671 187.98 152.549 188.226 152.364C188.502 152.18 188.748 151.965 188.963 151.72C189.178 151.474 189.362 151.228 189.485 150.952L190.068 148.342C189.976 147.698 189.699 147.176 189.3 146.777C188.871 146.377 188.41 146.163 187.857 146.163C187.366 146.163 186.906 146.285 186.476 146.531C186.046 146.777 185.678 147.084 185.34 147.483C185.002 147.882 184.756 148.312 184.572 148.803C184.388 149.294 184.296 149.785 184.296 150.246C184.296 150.614 184.357 150.952 184.449 151.29C184.572 151.628 184.695 151.904 184.91 152.149C185.094 152.395 185.34 152.579 185.616 152.733C185.862 152.886 186.169 152.948 186.506 152.948Z" fill="#193561"/>
<path d="M197.621 154.728C196.976 154.728 196.423 154.606 195.932 154.391C195.441 154.176 195.042 153.869 194.673 153.5C194.336 153.132 194.059 152.671 193.906 152.149C193.721 151.628 193.629 151.075 193.629 150.492C193.629 149.663 193.783 148.895 194.09 148.158C194.397 147.421 194.827 146.777 195.379 146.224C195.932 145.671 196.577 145.211 197.344 144.873C198.112 144.535 198.91 144.382 199.8 144.382C200.844 144.382 201.643 144.627 202.257 145.088C202.871 145.549 203.178 146.224 203.178 147.145C203.178 149.233 201.305 150.277 197.59 150.277C197.037 150.277 196.423 150.246 195.748 150.215V150.553C195.748 150.921 195.778 151.259 195.871 151.597C195.963 151.904 196.086 152.18 196.27 152.426C196.454 152.671 196.669 152.856 196.945 152.978C197.221 153.101 197.559 153.193 197.928 153.193C198.48 153.193 199.002 153.071 199.524 152.794C200.046 152.518 200.445 152.149 200.722 151.689L202.379 152.211C202.134 152.579 201.827 152.948 201.489 153.255C201.151 153.562 200.752 153.838 200.322 154.053C199.893 154.268 199.463 154.452 199.002 154.575C198.603 154.667 198.112 154.728 197.621 154.728ZM199.555 145.948C199.094 145.948 198.664 146.04 198.296 146.193C197.928 146.347 197.59 146.562 197.283 146.838C196.976 147.114 196.73 147.421 196.546 147.759C196.331 148.097 196.178 148.465 196.055 148.864C196.638 148.895 197.191 148.926 197.682 148.926C198.357 148.926 198.91 148.895 199.371 148.803C199.831 148.711 200.2 148.619 200.476 148.465C200.752 148.312 200.967 148.128 201.09 147.943C201.213 147.728 201.274 147.513 201.274 147.237C201.274 146.807 201.121 146.5 200.814 146.285C200.507 146.04 200.107 145.948 199.555 145.948Z" fill="#193561"/>
<path d="M205.787 144.566H207.691L207.261 146.562C207.752 145.886 208.397 145.364 209.165 144.965C209.932 144.566 210.73 144.382 211.559 144.382C211.989 144.382 212.327 144.443 212.603 144.566C212.88 144.689 213.094 144.842 213.279 145.057C213.463 145.272 213.586 145.518 213.647 145.794C213.739 146.07 213.77 146.378 213.77 146.715C213.77 146.992 213.739 147.268 213.708 147.544C213.678 147.851 213.616 148.128 213.555 148.435L212.265 154.514H210.178L211.375 148.926C211.437 148.68 211.467 148.465 211.498 148.281C211.529 148.097 211.529 147.882 211.529 147.728C211.529 146.746 211.129 146.255 210.301 146.255C210.024 146.255 209.717 146.316 209.41 146.439C209.103 146.562 208.796 146.715 208.52 146.93C208.213 147.145 207.936 147.391 207.691 147.667C207.445 147.943 207.23 148.281 207.046 148.619L205.757 154.544H203.669L205.787 144.566Z" fill="#193561"/>
<path d="M218.989 154.728C218.344 154.728 217.792 154.606 217.301 154.391C216.809 154.176 216.41 153.869 216.042 153.5C215.704 153.132 215.428 152.671 215.274 152.149C215.09 151.628 214.998 151.075 214.998 150.492C214.998 149.663 215.151 148.895 215.458 148.158C215.766 147.421 216.195 146.777 216.748 146.224C217.301 145.671 217.945 145.211 218.713 144.873C219.48 144.535 220.279 144.382 221.169 144.382C222.213 144.382 223.011 144.627 223.625 145.088C224.239 145.549 224.546 146.224 224.546 147.145C224.546 149.233 222.673 150.277 218.959 150.277C218.406 150.277 217.792 150.246 217.116 150.215V150.553C217.116 150.921 217.147 151.259 217.239 151.597C217.331 151.904 217.454 152.18 217.638 152.426C217.823 152.671 218.037 152.856 218.314 152.978C218.59 153.101 218.928 153.193 219.296 153.193C219.849 153.193 220.371 153.071 220.893 152.794C221.415 152.518 221.814 152.149 222.09 151.689L223.748 152.211C223.502 152.579 223.195 152.948 222.858 153.255C222.52 153.562 222.121 153.838 221.691 154.053C221.261 154.268 220.831 154.452 220.371 154.575C219.941 154.667 219.45 154.728 218.989 154.728ZM220.893 145.948C220.432 145.948 220.002 146.04 219.634 146.193C219.266 146.347 218.928 146.562 218.621 146.838C218.314 147.114 218.068 147.421 217.884 147.759C217.7 148.097 217.515 148.465 217.393 148.864C217.976 148.895 218.529 148.926 219.02 148.926C219.695 148.926 220.248 148.895 220.709 148.803C221.169 148.711 221.537 148.619 221.814 148.465C222.09 148.312 222.305 148.128 222.428 147.943C222.551 147.728 222.612 147.513 222.612 147.237C222.612 146.807 222.459 146.5 222.152 146.285C221.844 146.04 221.445 145.948 220.893 145.948Z" fill="#193561"/>
<path d="M227.156 144.566H229.09L228.599 146.807C229.09 146.132 229.643 145.579 230.226 145.149C230.84 144.72 231.454 144.505 232.038 144.505C232.16 144.505 232.252 144.505 232.345 144.505C232.406 144.505 232.467 144.535 232.559 144.535L232.16 146.378C231.393 146.408 230.687 146.592 230.011 146.93C229.336 147.268 228.814 147.79 228.415 148.435L227.125 154.544H225.037L227.156 144.566Z" fill="#193561"/>
<path d="M235.445 154.728C234.893 154.728 234.402 154.606 233.941 154.391C233.511 154.176 233.143 153.869 232.836 153.5C232.529 153.132 232.283 152.702 232.13 152.18C231.976 151.689 231.884 151.136 231.884 150.584C231.884 149.755 232.038 148.987 232.345 148.25C232.652 147.513 233.051 146.838 233.542 146.255C234.064 145.671 234.647 145.211 235.292 144.873C235.967 144.535 236.643 144.351 237.38 144.351C238.117 144.351 238.7 144.535 239.191 144.935C239.682 145.334 240.02 145.825 240.235 146.408L240.634 144.535H242.753L241.156 152.027C241.156 152.088 241.125 152.149 241.125 152.18C241.125 152.211 241.125 152.272 241.125 152.303C241.125 152.549 241.279 152.702 241.555 152.702L241.187 154.483C241.003 154.514 240.849 154.544 240.696 154.544C240.542 154.575 240.419 154.575 240.327 154.575C239.498 154.575 239.099 154.237 239.099 153.592C239.099 153.378 239.13 153.071 239.222 152.671C238.731 153.316 238.147 153.807 237.472 154.145C236.766 154.575 236.09 154.728 235.445 154.728ZM236.367 152.948C236.612 152.948 236.888 152.886 237.165 152.794C237.441 152.702 237.717 152.549 237.994 152.364C238.27 152.18 238.516 151.965 238.761 151.72C238.976 151.474 239.16 151.228 239.314 150.952L239.836 148.342C239.805 148.035 239.713 147.759 239.59 147.483C239.467 147.237 239.283 146.992 239.099 146.807C238.884 146.623 238.669 146.47 238.424 146.347C238.178 146.224 237.932 146.193 237.656 146.193C237.165 146.193 236.704 146.316 236.305 146.562C235.875 146.807 235.507 147.114 235.169 147.483C234.831 147.851 234.586 148.312 234.402 148.803C234.217 149.294 234.125 149.785 234.125 150.277C234.125 150.645 234.187 151.014 234.279 151.321C234.371 151.658 234.524 151.935 234.739 152.149C234.954 152.364 235.169 152.579 235.445 152.702C235.691 152.886 235.998 152.948 236.367 152.948Z" fill="#193561"/>
<path d="M246.099 154.698C245.546 154.698 245.086 154.575 244.717 154.299C244.349 154.053 244.165 153.623 244.165 153.04C244.165 152.825 244.196 152.61 244.226 152.426L245.546 146.193H244.257L244.625 144.566H245.853L246.56 141.281H248.647L247.941 144.566H249.998L249.661 146.193H247.634L246.437 151.75C246.406 151.873 246.406 151.965 246.406 152.027C246.406 152.272 246.468 152.457 246.621 152.579C246.775 152.702 246.959 152.764 247.174 152.764C247.481 152.764 247.757 152.702 248.003 152.61C248.279 152.518 248.463 152.426 248.617 152.364L248.678 154.022C248.371 154.207 248.003 154.36 247.511 154.483C247.112 154.636 246.621 154.698 246.099 154.698Z" fill="#193561"/>
<path d="M252.178 144.566H254.266L252.117 154.544H250.029L252.178 144.566ZM252.976 140.636H255.064L254.573 142.939H252.485L252.976 140.636Z" fill="#193561"/>
<path d="M258.871 154.728C258.226 154.728 257.674 154.606 257.183 154.391C256.691 154.176 256.292 153.869 255.954 153.5C255.617 153.132 255.371 152.671 255.187 152.18C255.003 151.689 254.941 151.136 254.941 150.584C254.941 149.785 255.095 149.018 255.433 148.281C255.74 147.544 256.169 146.869 256.722 146.316C257.275 145.733 257.919 145.272 258.656 144.935C259.393 144.597 260.191 144.413 261.051 144.413C261.696 144.413 262.248 144.535 262.74 144.75C263.231 144.965 263.63 145.272 263.968 145.641C264.305 146.009 264.551 146.47 264.735 146.961C264.919 147.483 264.981 148.005 264.981 148.588C264.981 149.386 264.827 150.154 264.49 150.891C264.183 151.628 263.722 152.272 263.169 152.856C262.617 153.439 261.972 153.9 261.235 154.237C260.529 154.575 259.731 154.728 258.871 154.728ZM259.27 152.948C259.7 152.948 260.161 152.825 260.59 152.61C261.02 152.395 261.389 152.088 261.726 151.72C262.064 151.351 262.31 150.921 262.525 150.399C262.74 149.878 262.832 149.386 262.832 148.803C262.832 148.035 262.647 147.421 262.248 146.899C261.849 146.408 261.327 146.132 260.683 146.132C260.253 146.132 259.792 146.255 259.393 146.47C258.963 146.685 258.595 146.992 258.257 147.36C257.919 147.728 257.643 148.158 257.459 148.68C257.244 149.171 257.152 149.693 257.152 150.277C257.152 151.044 257.336 151.658 257.735 152.18C258.104 152.702 258.626 152.948 259.27 152.948Z" fill="#193561"/>
<path d="M267.836 144.566H269.74L269.31 146.562C269.801 145.886 270.446 145.364 271.213 144.965C271.981 144.566 272.779 144.382 273.608 144.382C274.038 144.382 274.376 144.443 274.652 144.566C274.928 144.689 275.143 144.842 275.327 145.057C275.512 145.272 275.634 145.518 275.696 145.794C275.788 146.07 275.819 146.378 275.819 146.715C275.819 146.992 275.788 147.268 275.757 147.544C275.727 147.851 275.665 148.128 275.604 148.435L274.314 154.514H272.227L273.424 148.926C273.485 148.68 273.516 148.465 273.547 148.281C273.577 148.097 273.577 147.882 273.577 147.728C273.577 146.746 273.178 146.255 272.349 146.255C272.073 146.255 271.766 146.316 271.459 146.439C271.152 146.562 270.845 146.715 270.569 146.93C270.262 147.145 269.985 147.391 269.74 147.667C269.494 147.943 269.279 148.281 269.095 148.619L267.805 154.544H265.718L267.836 144.566Z" fill="#193561"/>
<path d="M281.591 144.566H283.678L285.06 152.671C285.213 152.457 285.367 152.242 285.551 151.996C285.735 151.75 285.889 151.474 286.073 151.228C286.257 150.952 286.411 150.706 286.564 150.461C286.718 150.215 286.871 149.97 286.994 149.785L285.766 144.597H287.762L288.376 147.759C288.468 147.544 288.591 147.329 288.713 147.022C288.836 146.746 288.959 146.47 289.082 146.163C289.205 145.856 289.328 145.579 289.42 145.303C289.512 145.027 289.604 144.781 289.665 144.566H291.507C290.955 146.316 290.156 148.035 289.113 149.693L289.757 152.457C290.279 151.75 290.74 151.075 291.139 150.43C291.569 149.785 291.937 149.141 292.275 148.496C292.613 147.851 292.92 147.206 293.196 146.562C293.472 145.917 293.718 145.242 293.933 144.535H295.867C295.345 146.193 294.608 147.851 293.656 149.509C292.705 151.167 291.538 152.825 290.187 154.483H288.314L287.67 151.474C287.547 151.658 287.393 151.873 287.209 152.149C287.025 152.426 286.841 152.702 286.656 152.978C286.472 153.255 286.257 153.531 286.073 153.807C285.889 154.084 285.705 154.299 285.582 154.483H283.525L281.591 144.566Z" fill="#193561"/>
<path d="M297.709 144.566H299.797L297.648 154.544H295.56L297.709 144.566ZM298.538 140.636H300.626L300.135 142.939H298.047L298.538 140.636Z" fill="#193561"/>
<path d="M302.253 144.566H304.187L303.696 146.807C304.187 146.132 304.74 145.579 305.323 145.149C305.937 144.72 306.551 144.505 307.135 144.505C307.257 144.505 307.35 144.505 307.442 144.505C307.503 144.505 307.564 144.535 307.657 144.535L307.258 146.378C306.49 146.408 305.784 146.592 305.108 146.93C304.433 147.268 303.911 147.79 303.512 148.435L302.222 154.544H300.135L302.253 144.566Z" fill="#193561"/>
<path d="M310.972 154.728C310.328 154.728 309.775 154.606 309.284 154.391C308.793 154.176 308.393 153.869 308.025 153.5C307.687 153.132 307.411 152.671 307.257 152.149C307.073 151.628 306.981 151.075 306.981 150.492C306.981 149.663 307.135 148.895 307.442 148.158C307.749 147.421 308.179 146.777 308.731 146.224C309.284 145.671 309.929 145.211 310.696 144.873C311.464 144.535 312.262 144.382 313.152 144.382C314.196 144.382 314.994 144.627 315.608 145.088C316.222 145.549 316.529 146.224 316.529 147.145C316.529 149.233 314.657 150.277 310.942 150.277C310.389 150.277 309.775 150.246 309.1 150.215V150.553C309.1 150.921 309.13 151.259 309.222 151.597C309.315 151.904 309.437 152.18 309.622 152.426C309.806 152.671 310.021 152.856 310.297 152.978C310.573 153.101 310.911 153.193 311.279 153.193C311.832 153.193 312.354 153.071 312.876 152.794C313.398 152.518 313.797 152.149 314.073 151.689L315.731 152.211C315.486 152.579 315.179 152.948 314.841 153.255C314.503 153.562 314.104 153.838 313.674 154.053C313.244 154.268 312.815 154.452 312.354 154.575C311.955 154.667 311.464 154.728 310.972 154.728ZM312.907 145.948C312.446 145.948 312.016 146.04 311.648 146.193C311.279 146.347 310.942 146.562 310.635 146.838C310.328 147.114 310.082 147.421 309.898 147.759C309.714 148.097 309.529 148.465 309.407 148.864C309.99 148.895 310.543 148.926 311.034 148.926C311.709 148.926 312.262 148.895 312.722 148.803C313.183 148.711 313.551 148.619 313.828 148.465C314.104 148.312 314.319 148.128 314.442 147.943C314.565 147.728 314.626 147.513 314.626 147.237C314.626 146.807 314.472 146.5 314.165 146.285C313.858 146.04 313.429 145.948 312.907 145.948Z" fill="#193561"/>
<path d="M319.231 154.698C318.648 154.698 318.187 154.544 317.88 154.268C317.573 153.992 317.42 153.592 317.42 153.071C317.42 152.978 317.42 152.856 317.451 152.764C317.451 152.641 317.481 152.549 317.512 152.426L319.999 140.606H322.087L319.753 151.658C319.723 151.812 319.692 151.935 319.692 152.027C319.692 152.272 319.753 152.487 319.907 152.61C320.06 152.733 320.244 152.825 320.521 152.825C320.674 152.825 320.828 152.794 321.012 152.733C321.196 152.671 321.38 152.61 321.565 152.549L321.503 154.176C321.166 154.329 320.797 154.421 320.367 154.514C319.937 154.667 319.569 154.698 319.231 154.698Z" fill="#193561"/>
<path d="M326.907 154.728C326.262 154.728 325.709 154.606 325.218 154.391C324.727 154.176 324.328 153.869 323.959 153.5C323.622 153.132 323.345 152.671 323.192 152.149C323.008 151.628 322.916 151.075 322.916 150.492C322.916 149.663 323.069 148.895 323.376 148.158C323.683 147.421 324.113 146.777 324.666 146.224C325.218 145.671 325.863 145.211 326.63 144.873C327.398 144.535 328.196 144.382 329.087 144.382C330.13 144.382 330.929 144.627 331.543 145.088C332.157 145.549 332.464 146.224 332.464 147.145C332.464 149.233 330.591 150.277 326.876 150.277C326.323 150.277 325.709 150.246 325.034 150.215V150.553C325.034 150.921 325.065 151.259 325.157 151.597C325.249 151.904 325.372 152.18 325.556 152.426C325.74 152.671 325.955 152.856 326.231 152.978C326.508 153.101 326.845 153.193 327.214 153.193C327.766 153.193 328.288 153.071 328.81 152.794C329.332 152.518 329.731 152.149 330.008 151.689L331.666 152.211C331.42 152.579 331.113 152.948 330.775 153.255C330.438 153.562 330.038 153.838 329.609 154.053C329.179 154.268 328.749 154.452 328.288 154.575C327.859 154.667 327.367 154.728 326.907 154.728ZM328.81 145.948C328.35 145.948 327.92 146.04 327.552 146.193C327.183 146.347 326.845 146.562 326.538 146.838C326.231 147.114 325.986 147.421 325.802 147.759C325.617 148.097 325.433 148.465 325.31 148.864C325.894 148.895 326.446 148.926 326.937 148.926C327.613 148.926 328.166 148.895 328.626 148.803C329.087 148.711 329.455 148.619 329.731 148.465C330.008 148.312 330.223 148.128 330.345 147.943C330.468 147.728 330.53 147.513 330.53 147.237C330.53 146.807 330.376 146.5 330.069 146.285C329.762 146.04 329.363 145.948 328.81 145.948Z" fill="#193561"/>
<path d="M336.363 154.728C335.595 154.728 334.859 154.606 334.152 154.329C333.446 154.084 332.894 153.685 332.433 153.224L333.569 151.904C334.521 152.794 335.534 153.224 336.639 153.224C337.284 153.224 337.806 153.071 338.205 152.794C338.604 152.487 338.788 152.119 338.788 151.628C338.788 151.29 338.635 151.014 338.297 150.86C337.96 150.676 337.468 150.492 336.793 150.307C336.302 150.154 335.902 150.031 335.534 149.908C335.166 149.785 334.889 149.632 334.644 149.448C334.429 149.263 334.245 149.079 334.122 148.864C333.999 148.649 333.938 148.404 333.938 148.097C333.938 147.544 334.06 147.022 334.306 146.592C334.552 146.132 334.859 145.763 335.288 145.426C335.688 145.119 336.179 144.873 336.701 144.689C337.223 144.505 337.806 144.443 338.389 144.443C339.096 144.443 339.74 144.566 340.293 144.781C340.846 144.996 341.337 145.334 341.736 145.763L340.569 147.022C340.201 146.654 339.802 146.378 339.372 146.193C338.942 146.009 338.481 145.917 338.021 145.917C337.468 145.917 336.977 146.04 336.578 146.316C336.179 146.592 335.995 146.992 335.995 147.544C335.995 147.851 336.117 148.097 336.394 148.25C336.67 148.404 337.1 148.557 337.714 148.742C338.236 148.895 338.727 149.018 339.095 149.171C339.495 149.325 339.832 149.478 340.078 149.663C340.324 149.847 340.538 150.062 340.661 150.307C340.784 150.553 340.846 150.829 340.846 151.136C340.846 151.658 340.723 152.149 340.508 152.61C340.293 153.04 339.986 153.439 339.587 153.746C339.188 154.053 338.696 154.299 338.144 154.483C337.653 154.636 337.038 154.728 336.363 154.728Z" fill="#193561"/>
<path d="M345.482 154.728C344.714 154.728 343.977 154.606 343.271 154.329C342.565 154.084 342.012 153.685 341.552 153.224L342.688 151.904C343.639 152.794 344.653 153.224 345.758 153.224C346.403 153.224 346.925 153.071 347.324 152.794C347.723 152.487 347.907 152.119 347.907 151.628C347.907 151.29 347.753 151.014 347.416 150.86C347.078 150.676 346.587 150.492 345.911 150.307C345.42 150.154 345.021 150.031 344.653 149.908C344.284 149.785 344.008 149.632 343.762 149.448C343.547 149.263 343.363 149.079 343.24 148.864C343.117 148.649 343.056 148.404 343.056 148.097C343.056 147.544 343.179 147.022 343.424 146.592C343.67 146.132 343.977 145.763 344.407 145.426C344.806 145.119 345.297 144.873 345.819 144.689C346.341 144.505 346.924 144.443 347.508 144.443C348.214 144.443 348.859 144.566 349.411 144.781C349.964 144.996 350.455 145.334 350.854 145.763L349.688 147.022C349.319 146.654 348.92 146.378 348.49 146.193C348.06 146.009 347.6 145.917 347.139 145.917C346.587 145.917 346.096 146.04 345.696 146.316C345.297 146.592 345.113 146.992 345.113 147.544C345.113 147.851 345.236 148.097 345.512 148.25C345.789 148.404 346.218 148.557 346.832 148.742C347.354 148.895 347.846 149.018 348.214 149.171C348.613 149.325 348.951 149.478 349.196 149.663C349.442 149.847 349.657 150.062 349.78 150.307C349.903 150.553 349.964 150.829 349.964 151.136C349.964 151.658 349.841 152.149 349.626 152.61C349.411 153.04 349.104 153.439 348.705 153.746C348.306 154.053 347.815 154.299 347.262 154.483C346.74 154.636 346.126 154.728 345.482 154.728Z" fill="#193561"/>
<path d="M357.885 144.566H359.789L359.359 146.562C359.85 145.886 360.495 145.364 361.262 144.965C362.03 144.566 362.828 144.382 363.657 144.382C364.087 144.382 364.425 144.443 364.701 144.566C364.977 144.689 365.192 144.842 365.376 145.057C365.561 145.272 365.683 145.518 365.745 145.794C365.837 146.07 365.868 146.378 365.868 146.715C365.868 146.992 365.837 147.268 365.806 147.544C365.776 147.851 365.714 148.128 365.653 148.435L364.363 154.514H362.276L363.473 148.926C363.534 148.68 363.565 148.465 363.596 148.281C363.626 148.097 363.626 147.882 363.626 147.728C363.626 146.746 363.227 146.255 362.398 146.255C362.122 146.255 361.815 146.316 361.508 146.439C361.201 146.562 360.894 146.715 360.618 146.93C360.311 147.145 360.034 147.391 359.789 147.667C359.543 147.943 359.328 148.281 359.144 148.619L357.854 154.544H355.767L357.885 144.566Z" fill="#193561"/>
<path d="M371.056 154.728C370.412 154.728 369.859 154.606 369.368 154.391C368.876 154.176 368.477 153.869 368.109 153.5C367.771 153.132 367.495 152.671 367.341 152.149C367.157 151.628 367.065 151.075 367.065 150.492C367.065 149.663 367.218 148.895 367.526 148.158C367.833 147.421 368.262 146.777 368.815 146.224C369.368 145.671 370.012 145.211 370.78 144.873C371.548 144.535 372.346 144.382 373.236 144.382C374.28 144.382 375.078 144.627 375.692 145.088C376.306 145.549 376.613 146.224 376.613 147.145C376.613 149.233 374.74 150.277 371.026 150.277C370.473 150.277 369.859 150.246 369.183 150.215V150.553C369.183 150.921 369.214 151.259 369.306 151.597C369.398 151.904 369.521 152.18 369.705 152.426C369.89 152.671 370.105 152.856 370.381 152.978C370.657 153.101 370.995 153.193 371.363 153.193C371.916 153.193 372.438 153.071 372.96 152.794C373.482 152.518 373.881 152.149 374.157 151.689L375.815 152.211C375.569 152.579 375.262 152.948 374.925 153.255C374.587 153.562 374.188 153.838 373.758 154.053C373.328 154.268 372.898 154.452 372.438 154.575C372.008 154.667 371.547 154.728 371.056 154.728ZM372.99 145.948C372.53 145.948 372.1 146.04 371.732 146.193C371.363 146.347 371.026 146.562 370.719 146.838C370.412 147.114 370.166 147.421 369.982 147.759C369.797 148.097 369.613 148.465 369.49 148.864C370.074 148.895 370.626 148.926 371.118 148.926C371.793 148.926 372.346 148.895 372.806 148.803C373.267 148.711 373.635 148.619 373.912 148.465C374.188 148.312 374.403 148.128 374.526 147.943C374.648 147.728 374.71 147.513 374.71 147.237C374.71 146.807 374.556 146.5 374.249 146.285C373.942 146.04 373.512 145.948 372.99 145.948Z" fill="#193561"/>
<path d="M379.806 154.698C379.254 154.698 378.793 154.575 378.425 154.299C378.056 154.053 377.872 153.623 377.872 153.04C377.872 152.825 377.903 152.61 377.934 152.426L379.254 146.193H377.964L378.333 144.566H379.561L380.267 141.281H382.355L381.648 144.566H383.706L383.368 146.193H381.341L380.144 151.75C380.113 151.873 380.113 151.965 380.113 152.027C380.113 152.272 380.175 152.457 380.328 152.579C380.482 152.702 380.666 152.764 380.881 152.764C381.188 152.764 381.464 152.702 381.71 152.61C381.986 152.518 382.17 152.426 382.324 152.364L382.385 154.022C382.078 154.207 381.71 154.36 381.219 154.483C380.82 154.636 380.328 154.698 379.806 154.698Z" fill="#193561"/>
<path d="M384.627 144.566H386.714L388.096 152.671C388.249 152.457 388.403 152.242 388.587 151.996C388.771 151.75 388.925 151.474 389.109 151.228C389.293 150.952 389.447 150.706 389.6 150.461C389.754 150.215 389.907 149.97 390.03 149.785L388.802 144.597H390.798L391.412 147.759C391.504 147.544 391.627 147.329 391.749 147.022C391.872 146.746 391.995 146.47 392.118 146.163C392.241 145.856 392.363 145.579 392.456 145.303C392.548 145.027 392.64 144.781 392.701 144.566H394.543C393.991 146.316 393.192 148.035 392.149 149.693L392.793 152.457C393.315 151.75 393.776 151.075 394.175 150.43C394.605 149.785 394.973 149.141 395.311 148.496C395.649 147.851 395.956 147.206 396.232 146.562C396.508 145.917 396.754 145.242 396.969 144.535H398.903C398.381 146.193 397.644 147.851 396.692 149.509C395.741 151.167 394.574 152.825 393.223 154.483H391.35L390.706 151.474C390.583 151.658 390.429 151.873 390.245 152.149C390.061 152.426 389.877 152.702 389.692 152.978C389.508 153.255 389.293 153.531 389.109 153.807C388.925 154.084 388.741 154.299 388.618 154.483H386.561L384.627 144.566Z" fill="#193561"/>
<path d="M402.771 154.728C402.127 154.728 401.574 154.606 401.083 154.391C400.592 154.176 400.192 153.869 399.855 153.5C399.517 153.132 399.271 152.671 399.087 152.18C398.903 151.689 398.842 151.136 398.842 150.584C398.842 149.785 398.995 149.018 399.333 148.281C399.671 147.544 400.07 146.869 400.622 146.316C401.175 145.733 401.82 145.272 402.557 144.935C403.293 144.597 404.092 144.413 404.951 144.413C405.596 144.413 406.149 144.535 406.64 144.75C407.131 144.965 407.53 145.272 407.868 145.641C408.206 146.009 408.451 146.47 408.636 146.961C408.82 147.483 408.881 148.005 408.881 148.588C408.881 149.386 408.728 150.154 408.39 150.891C408.083 151.628 407.622 152.272 407.07 152.856C406.517 153.439 405.872 153.9 405.135 154.237C404.429 154.575 403.631 154.728 402.771 154.728ZM403.171 152.948C403.6 152.948 404.061 152.825 404.491 152.61C404.921 152.395 405.289 152.088 405.627 151.72C405.964 151.351 406.21 150.921 406.425 150.399C406.64 149.878 406.732 149.386 406.732 148.803C406.732 148.035 406.548 147.421 406.149 146.899C405.75 146.408 405.228 146.132 404.583 146.132C404.153 146.132 403.693 146.255 403.293 146.47C402.864 146.685 402.495 146.992 402.157 147.36C401.82 147.728 401.543 148.158 401.359 148.68C401.144 149.171 401.052 149.693 401.052 150.277C401.052 151.044 401.236 151.658 401.635 152.18C402.004 152.702 402.495 152.948 403.171 152.948Z" fill="#193561"/>
<path d="M411.736 144.566H413.671L413.179 146.807C413.671 146.132 414.223 145.579 414.807 145.149C415.421 144.72 416.035 144.505 416.618 144.505C416.741 144.505 416.833 144.505 416.925 144.505C416.986 144.505 417.048 144.535 417.14 144.535L416.741 146.378C415.973 146.408 415.267 146.592 414.592 146.93C413.916 147.268 413.394 147.79 412.995 148.435L411.706 154.544H409.618L411.736 144.566Z" fill="#193561"/>
<path d="M419.535 140.636H421.622L420.241 147.176C420.517 146.777 420.824 146.408 421.162 146.101C421.5 145.763 421.837 145.487 422.175 145.242C422.544 144.996 422.912 144.812 423.311 144.658C423.71 144.505 424.109 144.443 424.539 144.443C425.215 144.443 425.737 144.627 426.074 144.996C426.412 145.364 426.565 145.886 426.565 146.5C426.565 147.329 426.32 148.097 425.798 148.772C425.276 149.478 424.508 150.031 423.526 150.492L425.552 154.544H423.311L421.162 149.847C422.298 149.601 423.188 149.202 423.772 148.68C424.355 148.158 424.662 147.606 424.662 147.022C424.662 146.715 424.57 146.5 424.416 146.378C424.263 146.255 424.048 146.163 423.772 146.163C423.403 146.163 423.004 146.255 422.605 146.47C422.206 146.685 421.807 146.961 421.438 147.329C421.07 147.698 420.701 148.097 420.394 148.588C420.087 149.079 419.811 149.571 419.627 150.092L418.675 154.544H416.587L419.535 140.636Z" fill="#193561"/>
<path d="M430.526 154.728C429.759 154.728 429.022 154.606 428.315 154.329C427.609 154.084 427.057 153.685 426.596 153.224L427.732 151.904C428.684 152.794 429.697 153.224 430.802 153.224C431.447 153.224 431.969 153.071 432.368 152.794C432.767 152.487 432.952 152.119 432.952 151.628C432.952 151.29 432.798 151.014 432.46 150.86C432.123 150.676 431.631 150.492 430.956 150.307C430.465 150.154 430.066 150.031 429.697 149.908C429.329 149.785 429.052 149.632 428.807 149.448C428.592 149.263 428.408 149.079 428.285 148.864C428.162 148.649 428.101 148.404 428.101 148.097C428.101 147.544 428.223 147.022 428.469 146.592C428.715 146.132 429.022 145.763 429.451 145.426C429.851 145.119 430.342 144.873 430.864 144.689C431.386 144.505 431.969 144.443 432.552 144.443C433.259 144.443 433.903 144.566 434.456 144.781C435.009 144.996 435.5 145.334 435.899 145.763L434.732 147.022C434.364 146.654 433.965 146.378 433.535 146.193C433.105 146.009 432.645 145.917 432.184 145.917C431.631 145.917 431.14 146.04 430.741 146.316C430.342 146.592 430.158 146.992 430.158 147.544C430.158 147.851 430.28 148.097 430.557 148.25C430.833 148.404 431.263 148.557 431.877 148.742C432.399 148.895 432.89 149.018 433.259 149.171C433.658 149.325 433.995 149.478 434.241 149.663C434.487 149.847 434.702 150.062 434.824 150.307C434.947 150.553 435.009 150.829 435.009 151.136C435.009 151.658 434.886 152.149 434.671 152.61C434.456 153.04 434.149 153.439 433.75 153.746C433.351 154.053 432.859 154.299 432.307 154.483C431.816 154.636 431.202 154.728 430.526 154.728Z" fill="#193561"/>
<path d="M168.116 80.491C163.142 80.491 158.291 79.6928 153.533 78.0656C148.774 76.4383 144.752 74.0743 141.436 71.0041L148.467 58.6926C151.997 61.0566 155.405 62.8988 158.66 64.1883C161.945 65.4777 164.954 66.1225 167.686 66.1225C170.572 66.1225 172.015 65.2321 172.015 63.4207C172.015 62.4075 171.463 61.5479 170.357 60.8417C169.252 60.1356 167.072 59.3066 163.818 58.3549C159.796 57.2189 156.419 56.0829 153.717 54.9469C151.015 53.8417 148.835 52.6136 147.116 51.3241C145.427 50.0346 144.23 48.5916 143.493 46.9951C142.787 45.3986 142.418 43.5258 142.418 41.3767C142.418 38.4907 143.002 35.8196 144.138 33.3941C145.274 30.938 146.901 28.8195 148.958 27.0081C151.015 25.1967 153.471 23.8151 156.296 22.8633C159.151 21.8809 162.252 21.4203 165.629 21.4203C169.805 21.4203 173.796 21.973 177.572 23.0476C181.349 24.1221 185.156 26.3327 188.963 29.6485L181.195 41.96C177.664 39.6573 174.717 38.0301 172.353 37.0477C169.989 36.0652 167.748 35.6047 165.66 35.6047C164.432 35.6047 163.419 35.8503 162.651 36.3108C161.853 36.7714 161.454 37.5082 161.454 38.5214C161.454 39.5959 162.037 40.4863 163.173 41.1617C164.309 41.8372 166.581 42.6047 169.989 43.4951C174.103 44.5697 177.542 45.7056 180.366 46.903C183.16 48.1004 185.432 49.3899 187.121 50.8022C188.809 52.2145 190.007 53.7803 190.743 55.561C191.45 57.311 191.818 59.368 191.818 61.6707C191.818 64.6181 191.265 67.2585 190.191 69.5611C189.116 71.8638 187.55 73.8594 185.493 75.4866C183.436 77.1445 180.949 78.4033 178.033 79.2629C175.085 80.0612 171.8 80.491 168.116 80.491Z" fill="#193561"/>
<path d="M226.757 80.491C221.63 80.491 217.178 79.6928 213.309 78.0655C209.472 76.4383 206.217 74.2892 203.577 71.5874C200.936 68.8857 198.972 65.754 197.651 62.1926C196.331 58.6312 195.656 54.9162 195.656 51.0171C195.656 47.1179 196.331 43.403 197.651 39.8415C198.972 36.2801 200.967 33.1485 203.577 30.4467C206.217 27.745 209.441 25.5958 213.309 23.9686C217.147 22.3414 221.63 21.5432 226.757 21.5432C231.792 21.5432 236.244 22.3414 240.143 23.9686C244.042 25.5958 247.297 27.745 249.906 30.4467C252.547 33.1485 254.511 36.2801 255.832 39.8415C257.152 43.403 257.827 47.1179 257.827 51.0171C257.827 54.9162 257.152 58.6312 255.832 62.1926C254.511 65.754 252.516 68.8857 249.906 71.5874C247.266 74.2892 244.011 76.4383 240.143 78.0655C236.244 79.6621 231.792 80.491 226.757 80.491ZM216.717 50.9864C216.717 54.7934 217.638 57.8022 219.511 59.9514C221.384 62.1005 223.779 63.1751 226.757 63.1751C229.704 63.1751 232.13 62.1005 234.003 59.9514C235.875 57.8022 236.796 54.7934 236.796 50.9864C236.796 47.1793 235.875 44.1705 234.003 42.0214C232.13 39.8722 229.704 38.767 226.757 38.767C223.809 38.767 221.384 39.8415 219.511 42.0214C217.638 44.2012 216.717 47.1793 216.717 50.9864Z" fill="#193561"/>
<path d="M301.271 80.491C292.705 80.491 286.595 77.1752 282.911 70.5436V79.3857H265.104V0.573669H285.613V31.0301C287.271 27.9292 289.604 25.5651 292.643 23.9686C295.652 22.3414 299.244 21.5431 303.328 21.5431C306.797 21.5431 309.99 22.3107 312.999 23.8151C315.977 25.3195 318.556 27.4072 320.705 30.0169C322.854 32.6573 324.543 35.7889 325.771 39.4117C326.999 43.0346 327.613 46.9951 327.613 51.232C327.613 55.4689 326.938 59.3987 325.617 62.9602C324.297 66.5216 322.455 69.5918 320.122 72.2015C317.788 74.7804 314.994 76.8375 311.74 78.3112C308.486 79.7542 305.016 80.491 301.271 80.491ZM295.314 63.2058C298.692 63.2058 301.424 62.1312 303.481 59.9821C305.538 57.8329 306.551 54.9469 306.551 51.3548C306.551 49.6355 306.275 48.0083 305.753 46.5039C305.201 44.9995 304.494 43.6486 303.604 42.5126C302.714 41.3766 301.608 40.4556 300.35 39.8108C299.091 39.1661 297.709 38.8284 296.205 38.8284C294.056 38.8284 291.999 39.5959 290.064 41.1617C288.13 42.6968 286.656 44.7539 285.643 47.2714V57.4338C288.253 61.2716 291.507 63.2058 295.314 63.2058Z" fill="#193561"/>
<path d="M362.92 80.491C357.947 80.491 353.525 79.7235 349.626 78.1576C345.727 76.6225 342.473 74.5041 339.863 71.833C337.223 69.162 335.227 66.1225 333.876 62.6531C332.495 59.1838 331.819 55.561 331.819 51.7539C331.819 47.6399 332.495 43.7714 333.815 40.0872C335.135 36.4029 337.131 33.2099 339.74 30.4774C342.381 27.745 345.604 25.5651 349.473 23.9379C353.311 22.3107 357.793 21.5125 362.92 21.5125C367.955 21.5125 372.438 22.3107 376.306 23.9379C380.206 25.5651 383.46 27.7143 386.07 30.416C388.71 33.1178 390.675 36.2494 391.995 39.8109C393.315 43.3723 393.991 47.0872 393.991 50.9864C393.991 52.061 393.929 53.1662 393.837 54.2715C393.714 55.3768 393.592 56.3899 393.469 57.2496H353.618C353.832 60.2584 354.938 62.4382 356.964 63.7891C358.99 65.1093 361.17 65.7847 363.565 65.7847C365.806 65.7847 367.894 65.2935 369.89 64.2803C371.855 63.2672 373.175 61.8549 373.819 60.0742L391.197 65.0479C388.894 69.5918 385.333 73.3067 380.574 76.162C375.784 79.048 369.89 80.491 362.92 80.491ZM371.977 44.9381C371.609 42.2056 370.596 40.0565 368.969 38.46C367.311 36.8635 365.192 36.0959 362.583 36.0959C360.004 36.0959 357.854 36.8942 356.227 38.46C354.569 40.0565 353.556 42.2056 353.218 44.9381H371.977Z" fill="#193561"/>
<path d="M398.228 85.127C401.543 86.3551 404.337 86.9691 406.64 86.9691C411.03 86.9691 413.456 84.4516 413.886 79.4164L393.254 22.6177H414.315L425.123 62.0391L433.873 22.6177H453L433.781 86.2323C432.921 89.0262 431.693 91.5744 430.096 93.8464C428.5 96.1183 426.627 98.0526 424.416 99.6798C422.206 101.307 419.78 102.535 417.14 103.395C414.469 104.254 411.706 104.684 408.82 104.684C405.136 104.684 401.635 104.009 398.228 102.627V85.127Z" fill="#193561"/>
<path d="M118.63 8H5.40614C2.42979 8 0.00575333 10.4258 0.00575333 13.4042V86.6686C-0.0249307 86.4843 0.0671194 86.2694 0.281907 86.1466L7.55401 82.7382V16.6284C7.55401 16.045 8.04496 15.5537 8.62795 15.5537H115.408C115.991 15.5537 116.482 16.045 116.482 16.6284V96.648C116.482 97.0779 121.3 102.574 123.325 105C123.785 102.267 124 99.4729 124 96.648V13.4042C124.03 10.4258 121.606 8 118.63 8Z" fill="#FDB515"/>
<path d="M71 155L97 142L71 155Z" fill="#FDB515"/>
<path d="M71 155C70.6667 155.375 70.3333 155.708 70 156C70.3333 155.708 70.6863 155.375 71 155Z" fill="#FDB515"/>
<path d="M70 156C69.3462 156.412 68.6923 156.765 68 157C68.6923 156.765 69.3462 156.412 70 156Z" fill="#FDB515"/>
<path d="M70 156C70.3333 155.708 70.6863 155.375 71 155C70.6863 155.375 70.3333 155.708 70 156Z" fill="#FDB515"/>
<path d="M68 157C68.6538 156.706 69.3462 156.353 70 156C69.3462 156.353 68.6923 156.706 68 157Z" fill="#FDB515"/>
<path d="M122.265 104.853C120.52 102.746 118.806 100.7 117.214 98.7457C94.2551 70.8027 84.7959 56.3273 77.602 53.762C69.8878 51.0441 58.898 51.1662 54.949 53.5177C54.949 53.5177 53.1735 31.8047 32.4796 27.8346C11.7857 23.8646 12.949 35.3471 12.949 35.3471C12.949 35.3471 12.551 45.2723 22.3775 44.1729C27.3673 43.4399 45.0918 40.0807 44.0816 57.0297C44.0816 57.0297 31.5918 62.2213 22.6224 74.9254L6.45918 83.5985L0 87.5074C0.0306122 87.7517 0.21428 87.996 0.520403 87.996C2.38775 87.996 4.83673 88.0266 6.42857 88.0571C13.1327 88.1793 21.8571 88.6679 24.2143 90.1643C24.2143 90.1643 34.6224 93.0349 39.4286 110.87C41.5102 118.626 37.7449 126.902 33.1224 138.813C32.3877 140.737 31.6224 142.752 30.8265 144.89L53.2959 156.892C53.6939 157.105 54.0918 157.289 54.5204 157.472C54.6429 157.533 54.7347 157.563 54.8571 157.625C55.2245 157.777 55.5612 157.899 55.9286 158.022C55.9898 158.052 56.051 158.083 56.1429 158.083C56.5714 158.205 56.9694 158.327 57.398 158.449C57.551 158.48 57.7347 158.541 57.8877 158.571C58.1326 158.632 58.4082 158.693 58.6531 158.724C58.898 158.754 59.1122 158.816 59.3571 158.846C59.5408 158.877 59.7551 158.907 59.9388 158.907C60.949 158.999 61.9592 159.029 62.9694 158.968C63.0918 158.968 63.2143 158.938 63.3367 158.938C63.6428 158.907 63.949 158.877 64.2551 158.846C64.5 158.816 64.7143 158.785 64.9592 158.724C65.1735 158.693 65.3878 158.663 65.602 158.602C65.6633 158.602 65.6939 158.571 65.7551 158.571C66.0918 158.48 66.4592 158.419 66.7959 158.327H66.8265C67.3775 158.174 67.898 157.991 68.4184 157.777C68.5408 157.716 68.6939 157.655 68.8163 157.625C69.3673 157.411 69.8878 157.166 70.4082 156.892L96.3979 142.966C97.1939 142.538 97.9592 142.08 98.7551 141.622C98.8775 141.531 99 141.469 99.1224 141.408C99.1531 141.408 99.1531 141.378 99.1837 141.378C99.9184 140.92 100.653 140.431 101.388 139.943C101.51 139.851 101.663 139.759 101.786 139.668C102.52 139.149 103.224 138.629 103.929 138.08C103.99 138.019 104.051 137.988 104.112 137.927C104.786 137.377 105.459 136.828 106.102 136.247C106.163 136.186 106.255 136.125 106.316 136.064C106.99 135.484 107.633 134.873 108.245 134.262C108.337 134.171 108.459 134.049 108.551 133.957C109.163 133.316 109.776 132.705 110.388 132.033C110.449 131.972 110.51 131.911 110.571 131.819C111.092 131.239 111.582 130.628 112.071 130.048C112.286 129.773 112.5 129.498 112.714 129.223C113.143 128.674 113.602 128.093 114 127.513C114.092 127.422 114.153 127.33 114.184 127.269C114.704 126.536 115.224 125.773 115.714 125.009C116.724 123.421 117.643 121.741 118.469 120.062C118.5 120.001 118.531 119.94 118.561 119.848L118.592 119.787C118.99 118.932 119.388 118.077 119.755 117.191C119.786 117.13 119.786 117.1 119.816 117.038C120.52 115.298 121.133 113.526 121.653 111.725C121.929 110.717 122.204 109.74 122.418 108.732C122.418 108.701 122.418 108.671 122.449 108.64C122.663 107.724 122.847 106.777 123 105.831C123 105.8 123 105.8 123 105.77C122.755 105.464 122.51 105.159 122.265 104.853ZM39.4898 81.4913C37.2857 81.4913 35.5102 79.72 35.5102 77.5212C35.5102 75.3225 37.2857 73.5512 39.4898 73.5512C41.6939 73.5512 43.4694 75.3225 43.4694 77.5212C43.4694 79.72 41.6939 81.4913 39.4898 81.4913Z" fill="#193561"/>
</svg>
